<?xml version="1.0" encoding="utf-8"?>
<!-- Generator: Adobe Illustrator 24.0.2, SVG Export Plug-In . SVG Version: 6.00 Build 0)  -->
<svg version="1.1" id="Layer_1" xmlns="http://www.w3.org/2000/svg" xmlns:xlink="http://www.w3.org/1999/xlink" x="0px" y="0px"
	 viewBox="0 0 1920 614" style="enable-background:new 0 0 1920 614;" xml:space="preserve">
<style type="text/css">
	.st0{fill:#743629;}
	.st1{fill:#8EAA39;}
	.st2{fill:#7C912F;}
	.st3{fill:#602920;}
	.st4{fill:#EF3E5C;}
	.st5{fill:#D63457;}
	.st6{fill:#427451;}
	.st7{fill:#335B3D;}
	.st8{fill:#FF143A;}
	.st9{fill:#DD0A32;}
	.st10{fill:#D30045;}
	.st11{fill:#BC0447;}
	.st12{fill:#BE0000;}
	.st13{fill:#9F0000;}
	.st14{fill:#FFFFFF;stroke:#000000;stroke-width:0.75;stroke-miterlimit:10;}
</style>
<g id="_x36_76_x2C__flower_x2C__love_x2C__heart_x2C__wedding">
	<g>
		<path class="st0" d="M159.38,269.77H96.9c-3.12,0-5.65-2.53-5.65-5.65c0-3.12,2.53-5.65,5.65-5.65h62.49
			c3.12,0,5.65,2.53,5.65,5.65C165.04,267.24,162.51,269.77,159.38,269.77z"/>
		<path class="st1" d="M299.93,142.3c0-17.61-30.33-31.89-67.75-31.89c-15.89,0-30.5,2.59-42.05,6.9
			c3.68-16.26,10.6-31.72,20.31-46.02c12.03-17.71,28.32-33.62,47.88-47.05c19.27,13.23,35.36,28.87,47.34,46.26
			c11.53,16.75,19.26,35.11,22.34,54.49c1.01,6.3,1.54,12.7,1.54,19.18c0,27.07-8.99,52.62-24.91,75.16
			c-1.5,2.13-3.08,4.23-4.69,6.3v-63.98L299.93,142.3L299.93,142.3z"/>
		<g>
			<path class="st2" d="M218.73,83c12.03-17.71,28.32-33.62,47.88-47.05c16.48,11.32,30.63,24.41,41.88,38.84
				c-0.92-1.44-1.86-2.87-2.84-4.29c-11.98-17.39-28.07-33.03-47.34-46.26c-19.56,13.43-35.85,29.34-47.88,47.05
				c-9.71,14.3-16.63,29.76-20.31,46.02c3.95-1.47,8.27-2.74,12.86-3.78C206.87,102.9,212.16,92.69,218.73,83z"/>
		</g>
		<path class="st2" d="M257.81,116.07c-3.12,0-5.65-2.53-5.65-5.65V59.19c0-3.12,2.53-5.65,5.65-5.65c3.12,0,5.65,2.53,5.65,5.65
			v51.23C263.46,113.54,260.93,116.07,257.81,116.07z"/>
		<polygon class="st0" points="247.57,410.93 247.57,510.03 216.82,510.03 216.82,462.15 216.82,325.59 232.19,325.59 
			247.57,325.59 		"/>
		<polygon class="st3" points="227.06,472.4 227.06,335.84 242.43,335.84 247.57,335.84 247.57,325.59 232.19,325.59 216.82,325.59 
			216.82,462.15 216.82,510.03 227.06,510.03 		"/>
		<path class="st1" d="M101.42,264.11c-3.7,5.4-8.05,9.92-12.89,13.32c-6.49,4.59-13.84,7.17-21.63,7.17
			c-7.62,0-14.81-2.47-21.2-6.86c-5-3.45-9.5-8.07-13.31-13.63c3.87-5.63,8.45-10.31,13.55-13.77c6.32-4.3,13.45-6.72,20.97-6.72
			c7.7,0,14.98,2.53,21.41,7.01C93.23,254.07,97.67,258.64,101.42,264.11z"/>
		<path class="st2" d="M50.45,260.16c6.32-4.3,13.45-6.72,20.97-6.72c7.7,0,14.98,2.53,21.41,7.01c2.45,1.71,4.77,3.69,6.95,5.93
			c0.56-0.74,1.11-1.49,1.64-2.27c-3.75-5.47-8.19-10.04-13.12-13.48c-6.42-4.48-13.71-7.01-21.41-7.01
			c-7.52,0-14.64,2.42-20.97,6.72c-5.1,3.46-9.68,8.14-13.55,13.77c1.89,2.76,3.95,5.28,6.16,7.55
			C42.05,267.04,46.06,263.14,50.45,260.16z"/>
		<path class="st1" d="M162.75,266.4c0.42,5.65-0.1,11.28-1.59,16.62c-2.01,7.17-5.74,13.83-11.25,19.34
			c-5.39,5.38-11.88,9.08-18.87,11.12c-5.48,1.59-11.27,2.17-17.1,1.74c-0.44-5.91,0.16-11.79,1.81-17.35
			c2.05-6.9,5.72-13.3,11.05-18.63c5.45-5.44,12.01-9.16,19.09-11.18C151.3,266.52,157.02,265.97,162.75,266.4z"/>
		<path class="st2" d="M126.47,301.48c2.05-6.9,5.72-13.3,11.05-18.63c5.45-5.44,12.01-9.16,19.09-11.18
			c2.05-0.58,4.15-1.02,6.28-1.32c0-1.31-0.04-2.63-0.13-3.95c-5.73-0.43-11.46,0.12-16.87,1.66c-7.08,2.02-13.64,5.75-19.09,11.18
			c-5.33,5.33-9,11.73-11.05,18.63c-1.65,5.55-2.25,11.43-1.81,17.35c3.56,0.26,7.12,0.15,10.59-0.35
			C124.55,310.3,125.19,305.79,126.47,301.48z"/>
		<path class="st4" d="M104.11,366.57c11.32,0,20.49,9.18,20.49,20.5c0,11.32-9.17,20.49-20.49,20.49s-20.49-9.17-20.49-20.49
			C83.62,375.76,92.79,366.57,104.11,366.57z"/>
		<path class="st5" d="M89.27,399.7c0-11.32,9.17-20.5,20.49-20.5c5.8,0,11.03,2.42,14.76,6.3c-0.81-10.58-9.62-18.93-20.41-18.93
			c-11.32,0-20.49,9.18-20.49,20.5c0,5.52,2.19,10.51,5.73,14.2C89.31,400.75,89.27,400.23,89.27,399.7z"/>
		<path class="st1" d="M205.38,452.2c4.93,2.74,9.36,6.39,13.12,10.75c-3.7,4.3-8.06,7.9-12.89,10.62
			c-6.49,3.65-13.84,5.72-21.63,5.72c-7.62,0-14.81-1.98-21.2-5.48c-5-2.75-9.5-6.43-13.31-10.86c3.87-4.49,8.45-8.22,13.54-10.99
			c6.33-3.43,13.46-5.35,20.98-5.35C191.67,446.61,198.95,448.63,205.38,452.2z"/>
		<path class="st2" d="M171.07,460.63c6.33-3.43,13.46-5.35,20.98-5.35c7.7,0,14.97,2.01,21.41,5.59c1.52,0.84,2.99,1.78,4.41,2.8
			c0.21-0.24,0.43-0.47,0.64-0.71c-3.75-4.36-8.19-8.02-13.12-10.75c-6.43-3.57-13.71-5.59-21.41-5.59
			c-7.52,0-14.64,1.92-20.98,5.35c-5.09,2.77-9.67,6.5-13.54,10.99c2.6,3.02,5.53,5.68,8.72,7.96
			C161.91,466.74,166.26,463.25,171.07,460.63z"/>
		<path class="st1" d="M300.02,398.79c5.1,2.76,9.68,6.49,13.55,10.98c-3.81,4.42-8.31,8.12-13.31,10.87
			c-6.39,3.51-13.59,5.47-21.2,5.47c-7.79,0-15.14-2.06-21.63-5.71c-4.84-2.73-9.19-6.33-12.89-10.63
			c3.75-4.37,8.19-8.01,13.12-10.74c6.42-3.57,13.71-5.6,21.41-5.6C286.57,393.43,293.7,395.36,300.02,398.79z"/>
		<path class="st2" d="M300.02,398.79c-6.32-3.43-13.45-5.36-20.97-5.36c-7.7,0-14.98,2.03-21.41,5.6
			c-4.93,2.74-9.36,6.38-13.12,10.74c0.82,0.96,1.68,1.87,2.57,2.76c1.57-1.14,3.2-2.2,4.89-3.14c6.42-3.57,13.71-5.6,21.41-5.6
			c7.52,0,14.64,1.93,20.97,5.36c4.02,2.17,7.7,4.95,10.98,8.23c2.99-2.19,5.76-4.75,8.22-7.61
			C309.7,405.28,305.12,401.55,300.02,398.79z"/>
		<path class="st4" d="M413.51,270.6c11.31,0,20.49,9.18,20.49,20.5s-9.18,20.49-20.49,20.49c-11.32,0-20.5-9.17-20.5-20.49
			S402.19,270.6,413.51,270.6z"/>
		<path class="st5" d="M396.97,300.94c0-11.32,9.18-20.5,20.5-20.5c6.79,0,12.79,3.32,16.52,8.41c-0.14-11.2-9.25-20.25-20.48-20.25
			c-11.32,0-20.5,9.18-20.5,20.5c0,4.53,1.48,8.69,3.97,12.08C396.98,301.1,396.97,301.02,396.97,300.94z"/>
		<path class="st4" d="M360.27,38.7c11.32,0,20.49,9.17,20.49,20.49s-9.17,20.49-20.49,20.49c-11.32,0-20.49-9.17-20.49-20.49
			S348.95,38.7,360.27,38.7z"/>
		<path class="st5" d="M362.04,50.28c8.18,0,15.22,4.8,18.5,11.73c0.13-0.93,0.22-1.86,0.22-2.82c0-11.32-9.17-20.49-20.49-20.49
			c-11.32,0-20.49,9.17-20.49,20.49c0,3.14,0.73,6.1,1.99,8.76C343.15,57.97,351.68,50.28,362.04,50.28z"/>
		<path class="st6" d="M299.93,252.88v-27.25c1.62-2.07,3.19-4.17,4.69-6.3c15.92-22.55,24.91-48.09,24.91-75.16
			c0-6.48-0.53-12.88-1.54-19.18c4.97-1.52,10.04-2.77,15.23-3.77c21.03-4.01,43.79-3.75,67.14,0.58
			c4.27,22.99,4.58,45.42,0.76,66.19c-4.89,26.48-16.5,50.26-35.21,68.98c-19.14,19.14-43.56,30.85-70.77,35.53
			c-5.21,0.91-10.54,1.54-15.94,1.92c6.78-10.55,10.73-23.09,10.73-36.56L299.93,252.88L299.93,252.88z"/>
		<path class="st7" d="M305.26,292.48c3.48-8.14,5.41-17.1,5.41-26.51v-4.98v-27.25c1.62-2.07,3.19-4.17,4.69-6.3
			c15.92-22.55,24.91-48.09,24.91-75.16c0-6.48-0.53-12.88-1.54-19.18c4.97-1.52,10.04-2.77,15.23-3.77
			c18.13-3.46,37.54-3.74,57.51-0.98c-0.34-2.18-0.69-4.36-1.1-6.55c-23.34-4.33-46.1-4.59-67.14-0.58
			c-5.19,1-10.27,2.25-15.23,3.77c1.01,6.3,1.54,12.7,1.54,19.18c0,27.07-8.99,52.62-24.91,75.16c-1.5,2.13-3.08,4.23-4.69,6.3
			v27.25v4.98c0,13.47-3.95,26.01-10.73,36.56c5.41-0.38,10.73-1.02,15.94-1.92C305.18,292.49,305.22,292.48,305.26,292.48z"/>
		<path class="st8" d="M232.19,110.41c37.42,0,67.75,14.28,67.75,31.89c0,15.96-24.92,29.17-57.46,31.5
			c-3.36,0.25-6.8,0.37-10.29,0.37c-37.41,0-67.74-14.28-67.74-31.88c0-8.28,6.68-15.81,17.66-21.47c2.45-1.27,5.15-2.44,8.02-3.52
			C201.69,113,216.3,110.41,232.19,110.41z"/>
		<path class="st9" d="M174.39,151.89c0-8.28,6.68-15.81,17.66-21.47c2.45-1.27,5.15-2.44,8.02-3.52c11.56-4.31,26.17-6.9,42.05-6.9
			c22.7,0,42.77,5.26,55.06,13.32c-8.24-13.23-34.21-22.91-65-22.91c-15.89,0-30.5,2.59-42.05,6.9c-2.87,1.07-5.56,2.25-8.02,3.52
			c-10.98,5.67-17.66,13.2-17.66,21.47c0,6.92,4.71,13.33,12.68,18.55C175.36,158.01,174.39,155,174.39,151.89z"/>
		<path class="st10" d="M299.93,252.88v4.98c0,13.47-3.95,26.01-10.73,36.56c-6.03,9.38-14.29,17.17-24.05,22.62
			c-9.75,5.45-20.99,8.56-32.96,8.56c-18.68,0-35.6-7.56-47.86-19.79l1.75-0.7c16.4-90.17,112.71-143.45,112.71-143.45h1.14v63.98
			L299.93,252.88L299.93,252.88z"/>
		<path class="st11" d="M196.11,314.19c13.34-73.38,79.61-122.33,103.82-138.02v-14.53h-1.14c0,0-96.31,53.28-112.71,143.45
			l-1.75,0.7c3.29,3.28,6.93,6.21,10.83,8.77L196.11,314.19z"/>
		<path class="st4" d="M164.45,142.3c0,17.6,30.33,31.88,67.74,31.88c3.49,0,6.93-0.12,10.29-0.37
			c32.53-2.33,57.46-15.55,57.46-31.5v19.35h-1.14c0,0-96.31,53.28-112.71,143.45l-1.75,0.7c-11.5-11.5-18.91-27.1-19.79-44.43
			c-0.06-1.16-0.09-2.34-0.09-3.52L164.45,142.3L164.45,142.3z"/>
		<g>
			<g>
				<g>
					<path class="st5" d="M184.06,305.52c0.09,0.1,0.18,0.19,0.27,0.28l1.75-0.7c1.69-9.27,4.23-18.15,7.41-26.62
						C189.64,287.04,186.42,296.06,184.06,305.52z"/>
				</g>
				<g>
					<path class="st5" d="M228.1,184.07c3.49,0,6.93-0.12,10.29-0.37c31.8-2.28,56.31-14.96,57.41-30.43
						c-8.37,10.74-28.65,18.77-53.32,20.53c-3.36,0.25-6.8,0.37-10.29,0.37c-37.41,0-67.74-14.28-67.74-31.88v20.81
						C173.92,175.34,198.85,184.07,228.1,184.07z"/>
				</g>
				<g>
					<path class="st5" d="M295.85,153.2v10.17c1.88-1.13,2.94-1.72,2.94-1.72h1.14V142.3C299.93,146.13,298.48,149.8,295.85,153.2z"
						/>
				</g>
			</g>
		</g>
		<path class="st12" d="M182.11,120.83c-10.98,5.67-17.66,13.2-17.66,21.47v115.56c0,1.18,0.03,2.35,0.09,3.52
			c-1.47,0.11-2.93,0.18-4.4,0.19l-0.01-1.71C107.97,184.52,138.4,78.73,138.4,78.73l0.81-0.8L182.11,120.83z"/>
		<path class="st13" d="M164.45,257.68c-41.21-69.4-19.63-159.04-16.48-170.99l-8.76-8.76l-0.81,0.8c0,0-30.43,105.79,21.73,181.13
			l0.01,1.71c1.47-0.01,2.93-0.08,4.4-0.19c-0.06-1.16-0.09-2.34-0.09-3.52L164.45,257.68L164.45,257.68z"/>
		<path class="st10" d="M29.71,160.03c12.45,12.45,43.99,1.1,70.44-25.35c2.48-2.48,4.83-5.01,7.04-7.55
			c21.34-24.65,29.6-51.61,18.32-62.9l13.69,13.69l-0.81,0.8c0,0-30.43,105.79,21.73,181.13l0.01,1.71
			c-17.61,0.21-35.28-6.39-48.72-19.82L29.71,160.03z"/>
		<path class="st11" d="M109.3,145.96c2.48-2.48,4.83-5.01,7.04-7.55c6.19-7.16,11.28-14.5,15.11-21.61
			c2.09-18.51,5.33-31.94,6.5-36.42c-0.81-1.84-1.9-3.47-3.29-4.86l3.63,3.63c0.07-0.26,0.11-0.4,0.11-0.4l0.81-0.8l-13.69-13.69
			c11.29,11.29,3.02,38.24-18.32,62.9c-2.22,2.54-4.57,5.08-7.04,7.55c-26.45,26.45-57.99,37.8-70.44,25.35l14.94,14.94
			C59.46,180.53,86.3,168.96,109.3,145.96z"/>
		<path class="st4" d="M125.52,64.23c11.29,11.29,3.02,38.24-18.32,62.9c-2.22,2.54-4.57,5.08-7.04,7.55
			c-26.45,26.45-57.99,37.8-70.44,25.35c-12.45-12.45-1.1-43.99,25.35-70.44C81.53,63.15,113.07,51.79,125.52,64.23z"/>
		<path class="st5" d="M55.08,102.39c26.46-26.45,58-37.8,70.45-25.36c2.17,2.17,3.61,4.92,4.38,8.12c1.6-8.82,0.3-16.22-4.39-20.92
			c-12.45-12.44-43.99-1.09-70.45,25.36c-21.83,21.83-33.36,47.12-29.73,62.28C28,137.3,38.61,118.86,55.08,102.39z"/>
		<path class="st5" d="M77.4,113.1c-8.55,0-14.62-2.44-18.09-7.28c-5.27-7.35-1.77-16.49-1.36-17.51c1.18-2.89,4.48-4.28,7.37-3.1
			c2.88,1.18,4.27,4.45,3.11,7.34c-0.44,1.12-1.35,4.74,0.08,6.7c1.4,1.92,5.5,2.82,11.23,2.46c17.29-1.07,23.17-3.44,24.57-4.14
			c0.11-0.06,0.2-0.1,0.27-0.14c2.13-1.84,5.34-1.84,7.48,0.09c2.31,2.1,2.49,5.67,0.4,7.99c-0.69,0.76-1.73,1.49-3.08,2.17
			c-5.22,2.63-15.24,4.48-28.95,5.32C79.39,113.07,78.38,113.1,77.4,113.1z"/>
		<path class="st0" d="M242.76,414.63c-1.45,0-2.89-0.55-4-1.65c-2.21-2.21-2.21-5.79,0-8l44.18-44.19c2.21-2.21,5.79-2.21,8,0
			s2.21,5.79,0,7.99l-44.18,44.19C245.66,414.08,244.21,414.63,242.76,414.63z"/>
		<path class="st3" d="M220.92,467.8c-1.45,0-2.89-0.55-4-1.65l-44.19-44.18c-2.21-2.21-2.21-5.79,0-7.99c2.21-2.21,5.79-2.21,8,0
			l44.19,44.18c2.21,2.21,2.21,5.79,0,7.99C223.81,467.25,222.36,467.8,220.92,467.8z"/>
		<path class="st1" d="M280.94,515.68H96.88c-4.67,0-8.46-2.53-8.46-5.65c0-3.12,3.79-5.65,8.46-5.65h184.06
			c4.67,0,8.46,2.53,8.46,5.65C289.4,513.15,285.61,515.68,280.94,515.68z"/>
		<path class="st1" d="M319.48,515.68h-71.72c-3.12,0-5.65-2.53-5.65-5.65c0-3.12,2.53-5.65,5.65-5.65h71.72
			c3.12,0,5.65,2.53,5.65,5.65C325.13,513.15,322.6,515.68,319.48,515.68z"/>
		<path class="st9" d="M244.13,163.29c-0.97,0-2.13-0.22-3.45-0.67c-5.56-1.86-13.93-7.63-24.18-16.69
			c-7.62-6.74-10.94-13.47-9.86-20.02c1.47-8.92,10.4-12.91,11.42-13.34c2.88-1.21,6.19,0.14,7.4,3.02c1.2,2.87-0.13,6.17-2.99,7.39
			c-1.1,0.49-4.31,2.4-4.68,4.79c-0.37,2.35,1.89,5.87,6.2,9.68c12.95,11.43,18.81,13.95,20.29,14.44c0.13,0.04,0.23,0.08,0.31,0.1
			c2.8,0.22,5.07,2.49,5.2,5.37c0.15,3.12-2.27,5.77-5.38,5.91C244.31,163.29,244.22,163.29,244.13,163.29z"/>
		<path class="st7" d="M309.04,257.64c-1.59,0-3.17-0.67-4.29-1.97c-2.04-2.37-1.77-5.94,0.6-7.97l1.14-0.98l70.59-60.51
			c2.37-2.03,5.94-1.76,7.97,0.61c2.03,2.37,1.76,5.94-0.61,7.97l-71.72,61.47C311.66,257.19,310.34,257.64,309.04,257.64z"/>
		<path class="st1" d="M328.1,321.62c1.23,6.62,1.32,13.07,0.21,19.06c-1.4,7.62-4.74,14.46-10.13,19.84
			c-5.51,5.51-12.53,8.88-20.37,10.22c-5.82,1.01-12.11,0.89-18.53-0.31c-1.21-6.52-1.31-12.89-0.26-18.8
			c1.38-7.71,4.74-14.65,10.18-20.09c5.33-5.32,12.07-8.65,19.59-10.08C314.83,320.31,321.38,320.38,328.1,321.62z"/>
		<path class="st2" d="M281.23,363.32c1.38-7.71,4.74-14.64,10.18-20.09c5.33-5.31,12.07-8.65,19.59-10.08
			c5.68-1.08,11.79-1.08,18.07-0.04c0.08-3.73-0.24-7.58-0.97-11.48c-6.72-1.24-13.26-1.31-19.31-0.16
			c-7.52,1.42-14.26,4.76-19.59,10.08c-5.44,5.45-8.8,12.38-10.18,20.09c-1.05,5.91-0.95,12.28,0.26,18.8
			c0.42,0.08,0.83,0.14,1.25,0.21C280.58,368.14,280.8,365.69,281.23,363.32z"/>
	</g>
</g>
<g id="Layer_1_1_">
</g>
<g>
	<g>
		<path class="st14" d="M464.56,369.12c-2.7-8.41-5.11-15.62-9.31-22.23c-5.71-10.21-10.21-12.61-27.03-12.61h-32.14
			c-8.71,0-9.61,0.9-9.61,9.61v69.38h37.24c21.62,0,23.13-3.6,27.63-24.63h9.01v62.77h-9.31c-3.9-21.02-6.01-25.83-27.33-25.83
			h-37.24v53.76c0,26.13,3,27.33,30.33,29.73v8.41h-83.49v-8.41c24.33-1.8,27.03-3.9,27.03-29.73V360.41
			c0-26.13-3-27.33-27.03-29.73v-8.41h95.21c27.03,0,37.24-0.3,42.35-0.6c0.3,10.81,1.5,31.84,3,46.25L464.56,369.12z"/>
		<path class="st14" d="M490.09,517.48v-8.41c19.22-1.8,21.62-3.3,21.62-23.13V342.08c0-18.32-1.5-20.12-20.72-22.53v-7.81
			c16.22-1.8,34.84-6.61,44.45-10.21c0,14.12,0,28.53,0,42.65v141.76c0,19.82,1.8,21.32,21.32,23.13v8.41H490.09z"/>
		<path class="st14" d="M640.86,382.03c37.54,0,65.47,28.53,65.47,67.28c0,48.65-36.04,71.78-65.47,71.78
			c-41.45,0-66.67-33.34-66.67-66.98C574.18,405.16,612.32,382.03,640.86,382.03z M637.25,392.24c-18.32,0-34.84,17.72-34.84,52.56
			c0,38.14,16.82,65.77,41.45,65.77c18.62,0,34.24-13.51,34.24-54.66C678.1,420.77,663.68,392.24,637.25,392.24z"/>
		<path class="st14" d="M927.38,393.74c-15.32,2.4-18.02,5.71-24.33,22.53c-8.71,23.13-23.13,64.87-36.04,104.52h-9.31
			c-12.01-32.14-24.33-63.37-36.04-94.31c-11.11,27.63-24.63,60.97-36.64,94.31h-9.01c-10.81-35.74-22.23-71.18-34.54-107.22
			c-5.41-16.22-8.11-18.02-22.83-19.82v-8.11h62.47v8.11c-18.02,3-19.22,4.5-15.02,18.32c6.91,23.13,15.02,47.75,22.23,70.28
			c12.01-30.63,24.03-61.87,35.74-95.21h8.11c11.11,31.24,23.43,63.67,36.04,96.11c6.61-18.32,16.22-47.75,21.92-69.68
			c3.9-15.62,1.5-17.12-18.92-19.82v-8.11h56.16V393.74z"/>
		<path class="st14" d="M1042.41,491.95c-19.22,24.03-40.25,29.13-49.86,29.13c-36.64,0-58.87-30.03-58.87-64.57
			c0-20.42,7.21-39.34,19.52-52.56c12.61-14.12,29.13-21.92,44.75-21.92c26.13,0,45.95,22.53,45.95,46.55
			c-0.3,6.01-1.2,8.71-6.01,9.91c-6.01,1.2-44.45,3.9-80.19,5.11c-0.9,40.25,23.73,56.76,45.05,56.76
			c12.31,0,23.73-5.11,34.84-15.32L1042.41,491.95z M990.75,393.44c-13.82,0-27.33,12.92-31.54,37.24c16.82,0,33.64,0,51.36-0.9
			c5.41,0,7.21-1.5,7.21-6.01C1018.08,407.86,1007.57,393.44,990.75,393.44z"/>
		<path class="st14" d="M1131,517.48h-69.08v-8.41c18.92-1.8,20.72-3.3,20.72-22.83v-62.47c0-19.82-1.2-20.72-18.62-22.83v-7.51
			c14.72-2.4,28.23-6.01,42.35-12.31c0,9.91,0,23.13,0,33.04c10.51-15.62,23.13-32.14,38.14-32.14c11.11,0,17.42,6.91,17.42,14.42
			c0,6.91-4.81,13.51-10.21,16.52c-3,1.8-5.41,1.5-7.81-0.6c-4.5-4.51-8.11-7.51-13.51-7.51c-6.31,0-17.42,9.31-24.03,24.63v56.46
			c0,19.82,1.5,21.32,24.63,23.13V517.48z"/>
		<path class="st14" d="M1247.53,458.62h-69.08l2.1-18.32h69.08L1247.53,458.62z"/>
		<path class="st14" d="M1352.65,421.37c-5.41-17.42-13.21-29.43-31.54-29.43c-10.51,0-18.62,7.51-18.62,19.52
			c0,12.91,8.71,18.92,25.53,26.73c25.83,12.31,38.74,21.32,38.74,41.15c0,27.63-25.23,41.75-48.96,41.75
			c-15.62,0-29.43-4.81-35.74-8.41c-1.5-8.71-4.2-25.23-5.41-35.14l8.71-1.5c5.41,19.22,15.92,34.84,36.94,34.84
			c11.41,0,21.02-7.81,21.02-20.42c0-13.52-8.11-20.42-24.03-28.23c-21.02-10.21-38.14-19.82-38.14-41.45
			c0-21.92,18.62-38.74,46.85-38.74c12.61,0,22.83,3,28.83,3.9c0.9,7.21,3,26.13,4.51,33.34L1352.65,421.37z"/>
		<path class="st14" d="M1468.87,517.48v-8.41c17.42-1.8,19.82-3.3,19.82-23.13v-49.26c0-24.93-9.61-37.54-29.73-37.24
			c-11.41,0-23.43,5.71-31.84,15.62v70.88c0,19.52,2.4,21.32,20.42,23.13v8.41h-65.47v-8.41c17.42-1.5,21.32-3,21.32-23.13V341.18
			c0-15.92-0.9-19.82-21.02-21.62v-7.81c15.92-1.5,33.94-6.01,44.75-10.21c0,11.71,0,24.93,0,37.24v65.17
			c10.81-10.81,27.33-21.92,43.55-21.92c24.63,0,41.75,15.32,41.75,51.36v52.86c0,19.82,2.4,21.32,19.82,22.83v8.41H1468.87z"/>
		<path class="st14" d="M1617.54,382.03c37.54,0,65.47,28.53,65.47,67.28c0,48.65-36.04,71.78-65.47,71.78
			c-41.45,0-66.67-33.34-66.67-66.98C1550.86,405.16,1589.01,382.03,1617.54,382.03z M1613.94,392.24
			c-18.32,0-34.84,17.72-34.84,52.56c0,38.14,16.82,65.77,41.45,65.77c18.62,0,34.24-13.51,34.24-54.66
			C1654.78,420.77,1640.37,392.24,1613.94,392.24z"/>
		<path class="st14" d="M1701.63,391.94c14.12-2.1,29.73-7.21,43.55-12.91c0,7.21,0,16.82,0,24.03c0.9-0.6,24.93-14.42,26.13-15.02
			c7.21-3.9,13.52-6.01,17.42-6.01c33.04,0,53.16,27.63,53.16,57.37c0,45.65-36.04,74.48-75.39,81.69c-9.01-0.3-17.12-3-21.32-5.41
			v40.55c0,22.22,2.4,24.03,25.53,26.13v8.41h-71.18v-8.41c19.52-2.1,21.92-3.6,21.92-23.73V421.97c0-18.02-0.6-19.22-19.82-21.92
			V391.94z M1745.18,494.66c6.91,6.91,18.62,11.71,28.53,11.71c26.13,0,42.95-21.92,42.95-55.56c0-32.44-18.92-50.76-40.25-50.76
			c-10.51,0-23.13,6.91-31.24,12.92V494.66z"/>
	</g>
</g>
</svg>
