<svg xmlns="http://www.w3.org/2000/svg" width="1297.836" height="554.292" viewBox="0 0 1297.836 554.292">
  <g id="Group_8" data-name="Group 8" transform="translate(-268.164 -250.708)">
    <text id="فروشگاه_گل_و_گیاه_نوبهار" data-name="فروشگاه گل و گیاه نوبهار" transform="translate(523 608)" fill="#fff" font-size="172" font-family="leyla"><tspan x="0" y="0">فروشگاه گل و گیاه نوبهار</tspan></text>
    <g id="_x36_76_x2C__flower_x2C__love_x2C__heart_x2C__wedding" transform="translate(192.272 212.008)">
      <g id="Group_7" data-name="Group 7" transform="translate(75.891 38.7)">
        <path id="Path_1" data-name="Path 1" d="M189.285,254.877H139.292a4.524,4.524,0,0,1,0-9.047h49.994a4.524,4.524,0,0,1,0,9.047Z" transform="translate(-81.502 -58.439)" fill="#743629"/>
        <path id="Path_2" data-name="Path 2" d="M310.066,133.16c0-14.086-24.264-25.513-54.2-25.513-12.712,0-24.4,2.072-33.646,5.519a107.82,107.82,0,0,1,16.248-36.821c9.626-14.168,22.654-26.9,38.305-37.645,15.416,10.585,28.291,23.1,37.871,37.011a106.255,106.255,0,0,1,17.877,43.6,97.052,97.052,0,0,1,1.23,15.344c0,21.659-7.192,42.1-19.931,60.136-1.2,1.7-2.461,3.384-3.754,5.039V133.16Z" transform="translate(-89.836 -38.7)" fill="#8eaa39"/>
        <g id="Group_1" data-name="Group 1" transform="translate(132.383 0)">
          <path id="Path_3" data-name="Path 3" d="M245.1,85.717c9.627-14.168,22.654-26.9,38.305-37.645a149.625,149.625,0,0,1,33.506,31.073c-.737-1.153-1.489-2.3-2.27-3.434C305.063,61.8,292.189,49.285,276.773,38.7c-15.651,10.748-28.679,23.477-38.305,37.645a107.82,107.82,0,0,0-16.248,36.821,79.9,79.9,0,0,1,10.288-3.021A111.412,111.412,0,0,1,245.1,85.717Z" transform="translate(-222.219 -38.7)" fill="#7c912f"/>
        </g>
        <path id="Path_4" data-name="Path 4" d="M281.593,114.64a4.523,4.523,0,0,1-4.524-4.524V69.134a4.524,4.524,0,0,1,9.047,0v40.983A4.523,4.523,0,0,1,281.593,114.64Z" transform="translate(-95.063 -41.169)" fill="#7c912f"/>
        <path id="Path_5" data-name="Path 5" d="M270.418,373.469v79.289h-24.6V305.2h24.6Z" transform="translate(-92.085 -64.096)" fill="#743629"/>
        <path id="Path_6" data-name="Path 6" d="M254.015,422.649V313.4h16.4v-8.2h-24.6V452.758h8.2Z" transform="translate(-92.085 -64.096)" fill="#602920"/>
        <path id="Path_7" data-name="Path 7" d="M137.951,249.1a41.854,41.854,0,0,1-10.314,10.657,28.962,28.962,0,0,1-34.27.244,42.024,42.024,0,0,1-10.648-10.9,41.782,41.782,0,0,1,10.838-11.019,28.907,28.907,0,0,1,33.9.235A42.01,42.01,0,0,1,137.951,249.1Z" transform="translate(-76.542 -57.189)" fill="#8eaa39"/>
        <path id="Path_8" data-name="Path 8" d="M97.176,245.937a28.907,28.907,0,0,1,33.9.235,38.716,38.716,0,0,1,5.564,4.746c.447-.592.887-1.193,1.312-1.814a42.013,42.013,0,0,0-10.495-10.784,28.907,28.907,0,0,0-33.9-.235A41.782,41.782,0,0,0,82.719,249.1a45.834,45.834,0,0,0,4.93,6.042A40.734,40.734,0,0,1,97.176,245.937Z" transform="translate(-76.542 -57.189)" fill="#7c912f"/>
        <path id="Path_9" data-name="Path 9" d="M193.882,252.838a38.8,38.8,0,0,1-1.276,13.3,35,35,0,0,1-24.1,24.364,38.745,38.745,0,0,1-13.679,1.392,38.611,38.611,0,0,1,1.448-13.878,35.017,35.017,0,0,1,24.11-23.848A38.831,38.831,0,0,1,193.882,252.838Z" transform="translate(-83.403 -59.096)" fill="#8eaa39"/>
        <path id="Path_10" data-name="Path 10" d="M164.854,280.908a35.024,35.024,0,0,1,24.11-23.85A37.6,37.6,0,0,1,193.99,256c0-1.051-.029-2.106-.108-3.163a38.83,38.83,0,0,0-13.5,1.33,35.017,35.017,0,0,0-24.11,23.848,38.61,38.61,0,0,0-1.448,13.878,39.519,39.519,0,0,0,8.474-.28A38.143,38.143,0,0,1,164.854,280.908Z" transform="translate(-83.403 -59.096)" fill="#7c912f"/>
        <path id="Path_11" data-name="Path 11" d="M144.421,341.439a16.4,16.4,0,1,1-16.393,16.4A16.4,16.4,0,0,1,144.421,341.439Z" transform="translate(-80.86 -67.55)" fill="#ef3e5c"/>
        <path id="Path_12" data-name="Path 12" d="M132.552,367.944a16.38,16.38,0,0,1,28.2-11.362A16.385,16.385,0,1,0,132.615,369.2C132.583,368.784,132.552,368.368,132.552,367.944Z" transform="translate(-80.86 -67.55)" fill="#d63457"/>
        <path id="Path_13" data-name="Path 13" d="M230.991,416.689a38.571,38.571,0,0,1,10.495,8.6,38.62,38.62,0,0,1-10.314,8.5,35,35,0,0,1-34.27.189,38.715,38.715,0,0,1-10.648-8.685,38.852,38.852,0,0,1,10.829-8.795,35.051,35.051,0,0,1,33.908.191Z" transform="translate(-86.408 -74.295)" fill="#8eaa39"/>
        <path id="Path_14" data-name="Path 14" d="M203.541,423.436a35.051,35.051,0,0,1,33.908.189,37.153,37.153,0,0,1,3.525,2.237c.17-.191.345-.376.511-.569a38.585,38.585,0,0,0-10.495-8.6,35.054,35.054,0,0,0-33.908-.19,38.85,38.85,0,0,0-10.829,8.795,39.422,39.422,0,0,0,6.974,6.365A38.721,38.721,0,0,1,203.541,423.436Z" transform="translate(-86.408 -74.295)" fill="#7c912f"/>
        <path id="Path_15" data-name="Path 15" d="M314.717,369.474a38.513,38.513,0,0,1,10.838,8.786,38.749,38.749,0,0,1-10.649,8.693,35.059,35.059,0,0,1-34.27-.189,38.71,38.71,0,0,1-10.313-8.5,38.493,38.493,0,0,1,10.495-8.595,34.964,34.964,0,0,1,33.9-.191Z" transform="translate(-94.42 -69.813)" fill="#8eaa39"/>
        <path id="Path_16" data-name="Path 16" d="M314.717,369.474a34.964,34.964,0,0,0-33.9.191,38.521,38.521,0,0,0-10.495,8.595c.66.765,1.348,1.5,2.058,2.208a37.772,37.772,0,0,1,3.912-2.511,34.97,34.97,0,0,1,33.9-.189,38.074,38.074,0,0,1,8.782,6.582,39.644,39.644,0,0,0,6.58-6.09A38.521,38.521,0,0,0,314.717,369.474Z" transform="translate(-94.42 -69.813)" fill="#7c912f"/>
        <path id="Path_17" data-name="Path 17" d="M416.261,268.949a16.4,16.4,0,1,1-16.4,16.4A16.4,16.4,0,0,1,416.261,268.949Z" transform="translate(-106.764 -60.642)" fill="#ef3e5c"/>
        <path id="Path_18" data-name="Path 18" d="M403.025,294.824a16.381,16.381,0,0,1,29.619-9.671,16.393,16.393,0,1,0-29.609,9.868C403.034,294.952,403.025,294.889,403.025,294.824Z" transform="translate(-106.764 -60.642)" fill="#d63457"/>
        <path id="Path_19" data-name="Path 19" d="M370.952,51.49a16.393,16.393,0,1,1-16.393,16.393A16.39,16.39,0,0,1,370.952,51.49Z" transform="translate(-102.447 -39.919)" fill="#ef3e5c"/>
        <path id="Path_20" data-name="Path 20" d="M372.368,60.759a16.377,16.377,0,0,1,14.8,9.384,16.607,16.607,0,0,0,.173-2.26,16.393,16.393,0,1,0-31.2,7.009A16.381,16.381,0,0,1,372.368,60.759Z" transform="translate(-102.447 -39.919)" fill="#d63457"/>
        <path id="Path_21" data-name="Path 21" d="M318.414,229.565v-21.8c1.294-1.656,2.55-3.338,3.754-5.039,12.738-18.04,19.931-38.477,19.931-60.136a97.164,97.164,0,0,0-1.23-15.344,117.5,117.5,0,0,1,12.187-3.013c16.828-3.212,35.038-3,53.712.461,3.419,18.393,3.664,36.342.606,52.952-3.908,21.188-13.2,40.214-28.173,55.187-15.317,15.317-34.849,24.679-56.616,28.426a127.258,127.258,0,0,1-12.756,1.537,53.882,53.882,0,0,0,8.586-29.248v-3.981Z" transform="translate(-98.185 -46.633)" fill="#427451"/>
        <path id="Path_22" data-name="Path 22" d="M322.673,261.24A53.884,53.884,0,0,0,327,240.031V214.247c1.294-1.656,2.55-3.338,3.754-5.039,12.738-18.04,19.931-38.477,19.931-60.136a97.16,97.16,0,0,0-1.23-15.344,117.5,117.5,0,0,1,12.187-3.013,141.994,141.994,0,0,1,46.008-.781c-.269-1.744-.556-3.49-.882-5.244-18.674-3.465-36.886-3.673-53.712-.461a117.492,117.492,0,0,0-12.187,3.013,97.048,97.048,0,0,1,1.23,15.344c0,21.659-7.192,42.1-19.931,60.136-1.2,1.7-2.461,3.384-3.754,5.039v25.784a53.883,53.883,0,0,1-8.586,29.248,127.331,127.331,0,0,0,12.756-1.537Z" transform="translate(-98.185 -46.633)" fill="#335b3d"/>
        <path id="Path_23" data-name="Path 23" d="M253.7,114.91c29.937,0,54.2,11.426,54.2,25.513,0,12.765-19.94,23.341-45.969,25.205-2.687.2-5.437.3-8.233.3-29.928,0-54.193-11.426-54.193-25.5,0-6.622,5.347-12.648,14.131-17.18a59.41,59.41,0,0,1,6.414-2.814C229.3,116.982,240.989,114.91,253.7,114.91Z" transform="translate(-87.671 -45.963)" fill="#ff143a"/>
        <path id="Path_24" data-name="Path 24" d="M207.46,148.09c0-6.622,5.347-12.648,14.131-17.18a59.414,59.414,0,0,1,6.414-2.814c9.246-3.447,20.935-5.519,33.646-5.519,18.158,0,34.218,4.209,44.054,10.66-6.594-10.589-27.374-18.328-52.006-18.328-12.712,0-24.4,2.072-33.646,5.519a59.416,59.416,0,0,0-6.414,2.814c-8.785,4.533-14.131,10.558-14.131,17.18,0,5.538,3.767,10.661,10.144,14.844A13.489,13.489,0,0,1,207.46,148.09Z" transform="translate(-87.672 -45.962)" fill="#dd0a32"/>
        <path id="Path_25" data-name="Path 25" d="M309.577,233.211v3.981a53.883,53.883,0,0,1-8.586,29.248,54.465,54.465,0,0,1-19.244,18.094,54.207,54.207,0,0,1-64.659-8.984l1.4-.56c13.118-72.141,90.172-114.771,90.172-114.771h.915v72.991Z" transform="translate(-89.347 -50.28)" fill="#d30045"/>
        <path id="Path_26" data-name="Path 26" d="M226.511,282.262c10.676-58.71,63.693-97.872,83.065-110.42V160.22h-.915s-77.054,42.63-90.172,114.771l-1.4.56a54.581,54.581,0,0,0,8.665,7.015Z" transform="translate(-89.347 -50.28)" fill="#bc0447"/>
        <path id="Path_27" data-name="Path 27" d="M199.508,143.11c0,14.077,24.264,25.5,54.193,25.5,2.8,0,5.546-.1,8.233-.3,26.029-1.864,45.969-12.44,45.969-25.205v15.479h-.915s-77.054,42.63-90.172,114.771l-1.4.56a54.068,54.068,0,0,1-15.832-35.546c-.045-.932-.072-1.873-.072-2.814V143.11Z" transform="translate(-87.672 -48.65)" fill="#ef3e5c"/>
        <g id="Group_6" data-name="Group 6" transform="translate(111.836 94.46)">
          <g id="Group_5" data-name="Group 5">
            <g id="Group_2" data-name="Group 2" transform="translate(15.688 108.953)">
              <path id="Path_28" data-name="Path 28" d="M216.848,285.169c.074.076.144.154.218.228l1.4-.56a123.111,123.111,0,0,1,5.93-21.3A128.172,128.172,0,0,0,216.848,285.169Z" transform="translate(-216.848 -263.539)" fill="#d63457"/>
            </g>
            <g id="Group_3" data-name="Group 3">
              <path id="Path_29" data-name="Path 29" d="M250.435,176.53c2.8,0,5.546-.1,8.233-.3,25.44-1.822,45.053-11.967,45.927-24.345-6.695,8.589-22.922,15.015-42.661,16.428-2.687.2-5.437.3-8.233.3-29.929,0-54.193-11.426-54.193-25.5v16.649C207.088,169.54,227.028,176.53,250.435,176.53Z" transform="translate(-199.508 -143.11)" fill="#d63457"/>
            </g>
            <g id="Group_4" data-name="Group 4" transform="translate(105.128)">
              <path id="Path_30" data-name="Path 30" d="M315.71,151.831v8.133c1.507-.907,2.351-1.375,2.351-1.375h.915V143.11A14.2,14.2,0,0,1,315.71,151.831Z" transform="translate(-315.71 -143.11)" fill="#d63457"/>
            </g>
          </g>
        </g>
        <path id="Path_31" data-name="Path 31" d="M210.7,120.5c-8.785,4.533-14.131,10.558-14.131,17.18v92.452c0,.941.027,1.882.072,2.814-1.176.09-2.343.145-3.519.154l-.009-1.366c-41.734-60.28-17.388-144.915-17.388-144.915l.651-.642Z" transform="translate(-84.732 -43.225)" fill="#be0000"/>
        <path id="Path_32" data-name="Path 32" d="M196.569,229.993c-32.97-55.527-15.706-127.237-13.183-136.8l-7.01-7.01-.651.642s-24.346,84.635,17.388,144.915l.009,1.366c1.176-.009,2.343-.063,3.519-.154-.045-.932-.072-1.873-.072-2.814v-.143Z" transform="translate(-84.732 -43.225)" fill="#9f0000"/>
        <path id="Path_33" data-name="Path 33" d="M80.358,150.716c9.961,9.961,35.193.878,56.354-20.283,1.981-1.981,3.863-4.008,5.636-6.043C159.42,104.667,166.033,83.1,157,74.07L167.96,85.026l-.651.642S142.963,170.3,184.7,230.584l.009,1.366a54.011,54.011,0,0,1-38.975-15.859Z" transform="translate(-76.317 -42.071)" fill="#d30045"/>
        <path id="Path_34" data-name="Path 34" d="M144.027,139.455c1.981-1.981,3.863-4.008,5.636-6.043a97.416,97.416,0,0,0,12.09-17.289,216.218,216.218,0,0,1,5.2-29.141,12.7,12.7,0,0,0-2.635-3.89l2.9,2.9c.057-.207.09-.324.09-.324l.651-.642L157.005,74.07c9.029,9.029,2.416,30.6-14.656,50.32-1.773,2.036-3.655,4.062-5.636,6.043-21.161,21.161-46.393,30.244-56.354,20.283l11.957,11.957C104.155,167.115,125.628,157.855,144.027,139.455Z" transform="translate(-76.317 -42.071)" fill="#bc0447"/>
        <path id="Path_35" data-name="Path 35" d="M156.58,73.645c9.029,9.029,2.416,30.6-14.656,50.32-1.773,2.036-3.655,4.062-5.636,6.043-21.161,21.161-46.393,30.244-56.354,20.283s-.878-35.193,20.283-56.354S146.618,63.693,156.58,73.645Z" transform="translate(-75.891 -41.645)" fill="#ef3e5c"/>
        <path id="Path_36" data-name="Path 36" d="M100.229,104.176c21.17-21.161,46.4-30.244,56.363-20.293a13.458,13.458,0,0,1,3.5,6.495c1.281-7.054.239-12.98-3.515-16.733-9.961-9.952-35.193-.869-56.363,20.292-17.464,17.464-26.69,37.694-23.785,49.831C78.562,132.1,87.053,117.352,100.229,104.176Z" transform="translate(-75.893 -41.645)" fill="#d63457"/>
        <path id="Path_37" data-name="Path 37" d="M120.758,114.9c-6.838,0-11.7-1.953-14.474-5.821-4.216-5.877-1.419-13.192-1.087-14.007a4.524,4.524,0,0,1,8.388,3.393c-.348.9-1.078,3.8.063,5.359,1.121,1.534,4.4,2.255,8.985,1.97,13.831-.853,18.541-2.753,19.656-3.315.091-.046.162-.083.217-.115a4.524,4.524,0,0,1,6.3,6.466,8.373,8.373,0,0,1-2.462,1.734c-4.18,2.108-12.192,3.583-23.159,4.259Q121.936,114.9,120.758,114.9Z" transform="translate(-78.568 -43.804)" fill="#d63457"/>
        <path id="Path_38" data-name="Path 38" d="M268.286,379.259a4.523,4.523,0,0,1-3.2-7.722l35.347-35.356a4.523,4.523,0,0,1,6.4,6.4l-35.347,35.356A4.514,4.514,0,0,1,268.286,379.259Z" transform="translate(-93.795 -66.923)" fill="#743629"/>
        <path id="Path_39" data-name="Path 39" d="M245.241,426.283a4.512,4.512,0,0,1-3.2-1.324l-35.356-35.347a4.523,4.523,0,0,1,6.4-6.4l35.356,35.347a4.523,4.523,0,0,1-3.2,7.722Z" transform="translate(-88.229 -71.405)" fill="#602920"/>
        <path id="Path_40" data-name="Path 40" d="M286.3,472.348H139.037c-3.739,0-6.772-2.025-6.772-4.524s3.033-4.523,6.772-4.523H286.3c3.74,0,6.772,2.025,6.772,4.523S290.035,472.348,286.3,472.348Z" transform="translate(-81.264 -79.163)" fill="#8eaa39"/>
        <path id="Path_41" data-name="Path 41" d="M330.085,472.348H272.708a4.524,4.524,0,1,1,0-9.047h57.376a4.524,4.524,0,1,1,0,9.047Z" transform="translate(-94.216 -79.163)" fill="#8eaa39"/>
        <path id="Path_42" data-name="Path 42" d="M266.79,157.363a8.888,8.888,0,0,1-2.762-.535c-4.451-1.489-11.144-6.108-19.348-13.354-6.1-5.391-8.753-10.779-7.892-16.014,1.174-7.136,8.323-10.331,9.135-10.672a4.523,4.523,0,0,1,3.532,8.329c-.882.39-3.446,1.922-3.744,3.834-.292,1.876,1.515,4.7,4.959,7.744,10.358,9.148,15.045,11.159,16.236,11.557.1.035.185.061.252.079a4.524,4.524,0,0,1-.147,9.028C266.939,157.361,266.865,157.363,266.79,157.363Z" transform="translate(-91.209 -46.108)" fill="#dd0a32"/>
        <path id="Path_43" data-name="Path 43" d="M326.893,238.974a4.523,4.523,0,0,1-2.953-7.951l.915-.787,56.479-48.408a4.523,4.523,0,0,1,5.888,6.869l-57.379,49.182A4.5,4.5,0,0,1,326.893,238.974Z" transform="translate(-99.38 -52.236)" fill="#335b3d"/>
        <path id="Path_44" data-name="Path 44" d="M340.028,301.6a41.83,41.83,0,0,1,.172,15.246,28.941,28.941,0,0,1-24.4,24.056,42.071,42.071,0,0,1-14.828-.245,42.174,42.174,0,0,1-.208-15.044,28.9,28.9,0,0,1,23.812-24.137A41.872,41.872,0,0,1,340.028,301.6Z" transform="translate(-97.266 -63.679)" fill="#8eaa39"/>
        <path id="Path_45" data-name="Path 45" d="M302.529,334.963a28.9,28.9,0,0,1,23.812-24.138,41.476,41.476,0,0,1,14.459-.035,45,45,0,0,0-.773-9.186,41.906,41.906,0,0,0-15.452-.126,28.9,28.9,0,0,0-23.812,24.137,42.175,42.175,0,0,0,.208,15.044c.333.062.663.111,1,.166A38.172,38.172,0,0,1,302.529,334.963Z" transform="translate(-97.266 -63.679)" fill="#7c912f"/>
      </g>
    </g>
  </g>
</svg>
